/* XPM */
static char * TobbeOS_logo_q_xpm[] = {
"53 19 2 1",
" 	c None",
".	c #FF79C6",
"                                                     ",
"                                                     ",
"                                                     ",
"                                                     ",
"                                                     ",
"                                                     ",
"                                                     ",
"........      ..     ..              ......   ...... ",
"........      ..     ..             ........  .......",
"   ..         ..     ..            ...    .. ...   ..",
"   ..   ..... ...... ......  ..... ..     .......    ",
"   ..  ..............................     ... ...... ",
"   ..  ..   ....   ....   ....  .....      ..  ......",
"   ..  ..   ....   ....   ...........     .....   ...",
"   ..  ..   ....   ....   ....   .....    .. ...   ..",
"   ..  ............................ ........ ........",
"   ..   ..... ...... ......  .....   ......   ...... ",
"                                                     ",
"                                                     "};
